<svg width="24" height="24" viewBox="0 0 24 24" fill="none" xmlns="http://www.w3.org/2000/svg">
<path d="M12.775 18.425C13.6086 18.0083 14.4275 17.6958 15.2318 17.4875C16.036 17.2792 16.8904 17.175 17.7948 17.175C18.4316 17.175 19.0875 17.225 19.7625 17.325C20.4375 17.425 21.0083 17.5583 21.475 17.725V6.99745C20.9083 6.69915 20.3125 6.49167 19.6875 6.375C19.0625 6.25833 18.4316 6.2 17.7948 6.2C16.8904 6.2 16.0151 6.3375 15.1691 6.6125C14.323 6.8875 13.525 7.27287 12.775 7.76863V18.425ZM12.1053 20.975C11.9684 20.975 11.8286 20.9587 11.6858 20.926C11.5429 20.8933 11.406 20.843 11.275 20.775C10.5083 20.275 9.69435 19.8917 8.8331 19.625C7.97183 19.3583 7.09364 19.225 6.19853 19.225C5.63974 19.225 5.08778 19.3042 4.54265 19.4625C3.99753 19.6208 3.45831 19.7833 2.92498 19.95C2.37998 20.2333 1.83539 20.2237 1.29123 19.921C0.747059 19.6183 0.474976 19.128 0.474976 18.45V6.9672C0.474976 6.55573 0.566642 6.1775 0.749976 5.8325C0.933309 5.4875 1.20831 5.21 1.57498 5C2.34803 4.73333 3.1074 4.52083 3.8531 4.3625C4.5988 4.20417 5.36384 4.125 6.14823 4.125C7.19939 4.125 8.22914 4.27083 9.23748 4.5625C10.2458 4.85417 11.1833 5.30833 12.05 5.925C12.9166 5.325 13.8376 4.875 14.8129 4.575C15.7881 4.275 16.8014 4.125 17.8527 4.125C18.639 4.125 19.4018 4.2125 20.1411 4.3875C20.8804 4.5625 21.6333 4.76667 22.4 5C22.7666 5.21 23.0458 5.4875 23.2375 5.8325C23.4291 6.1775 23.525 6.55833 23.525 6.975V18.725C23.525 19.3417 23.2487 19.7833 22.6962 20.05C22.1437 20.3167 21.595 20.2833 21.05 19.95C20.5333 19.7667 20.004 19.6 19.462 19.45C18.92 19.3 18.37 19.225 17.812 19.225C16.9283 19.225 16.0762 19.3625 15.2557 19.6375C14.4352 19.9125 13.6583 20.2917 12.925 20.775C12.8122 20.843 12.6858 20.8933 12.5457 20.926C12.4057 20.9587 12.2589 20.975 12.1053 20.975ZM14 9.41453C14 9.33757 14.0333 9.26175 14.1 9.18705C14.1666 9.11235 14.2333 9.03782 14.3 8.96345C14.7965 8.80448 15.3055 8.675 15.8271 8.575C16.3486 8.475 16.9052 8.425 17.4969 8.425C17.8583 8.425 18.2169 8.44622 18.5725 8.48865C18.9281 8.5311 19.2768 8.59461 19.6188 8.67917C19.7229 8.69646 19.8125 8.75633 19.8875 8.8588C19.9625 8.96127 20 9.05571 20 9.14213C20 9.35596 19.9315 9.51073 19.7945 9.60645C19.6576 9.70215 19.5094 9.71667 19.35 9.65C19.05 9.58333 18.7458 9.52917 18.4375 9.4875C18.1291 9.44583 17.8166 9.425 17.5 9.425C17.0109 9.425 16.547 9.47083 16.1082 9.5625C15.6694 9.65417 15.2416 9.775 14.825 9.925C14.5937 10.025 14.3983 10.0184 14.239 9.90513C14.0796 9.79189 14 9.62836 14 9.41453ZM14 14.9197C14 14.8393 14.0333 14.7576 14.1 14.6746C14.1666 14.5915 14.2333 14.5128 14.3 14.4384C14.7965 14.2795 15.3055 14.1542 15.8271 14.0625C16.3486 13.9708 16.9052 13.925 17.4969 13.925C17.8583 13.925 18.2169 13.9462 18.5725 13.9887C18.9281 14.0311 19.2768 14.0946 19.6188 14.1792C19.7229 14.1965 19.8125 14.2563 19.8875 14.3588C19.9625 14.4613 20 14.5557 20 14.6421C20 14.856 19.9315 15.0107 19.7945 15.1065C19.6576 15.2022 19.5094 15.2167 19.35 15.15C19.05 15.0833 18.7458 15.0292 18.4375 14.9875C18.1291 14.9458 17.8166 14.925 17.5 14.925C17.0109 14.925 16.547 14.9667 16.1082 15.05C15.6694 15.1333 15.2416 15.25 14.825 15.4C14.5937 15.5 14.3983 15.5044 14.239 15.4131C14.0796 15.3219 14 15.1574 14 14.9197ZM14 12.1645C14 12.0876 14.0333 12.0117 14.1 11.937C14.1666 11.8623 14.2333 11.7878 14.3 11.7134C14.7965 11.5545 15.3055 11.425 15.8271 11.325C16.3486 11.225 16.9052 11.175 17.4969 11.175C17.8583 11.175 18.2169 11.1962 18.5725 11.2386C18.9281 11.2811 19.2768 11.3446 19.6188 11.4292C19.7229 11.4465 19.8125 11.5063 19.8875 11.6088C19.9625 11.7113 20 11.8057 20 11.8921C20 12.106 19.9315 12.2607 19.7945 12.3565C19.6576 12.4522 19.5094 12.4667 19.35 12.4C19.05 12.3333 18.7458 12.2792 18.4375 12.2375C18.1291 12.1958 17.8166 12.175 17.5 12.175C17.0109 12.175 16.547 12.2208 16.1082 12.3125C15.6694 12.4042 15.2416 12.525 14.825 12.675C14.5937 12.775 14.3983 12.7684 14.239 12.6551C14.0796 12.5419 14 12.3784 14 12.1645Z" fill="url(#paint0_linear_11_91)"/>
<defs>
<linearGradient id="paint0_linear_11_91" x1="12" y1="4.125" x2="12" y2="20.975" gradientUnits="userSpaceOnUse">
<stop stop-color="#FFAF00"/>
<stop offset="0.53125" stop-color="#FE4D1B"/>
<stop offset="1" stop-color="#E70154"/>
</linearGradient>
</defs>
</svg>
