<svg width="24" height="24" viewBox="0 0 24 24" fill="none" xmlns="http://www.w3.org/2000/svg">
<path d="M15.25 19.1L14.2128 21.7495C14.1709 21.9498 14.0621 22.1083 13.8863 22.225C13.7105 22.3416 13.5137 22.4 13.2961 22.4C12.932 22.4 12.6625 22.2586 12.4875 21.9759C12.3125 21.6932 12.2916 21.3837 12.425 21.0476L16.3642 10.5712C16.4214 10.3737 16.5333 10.2125 16.7 10.0875C16.8666 9.96248 17.05 9.89998 17.25 9.89998H18.0388C18.2358 9.89998 18.4164 9.95831 18.5806 10.075C18.7447 10.1916 18.8679 10.35 18.95 10.55L23.05 21.025C23.15 21.366 23.1033 21.6804 22.91 21.9682C22.7166 22.2561 22.4489 22.4 22.1068 22.4C21.8619 22.4 21.6391 22.3353 21.4385 22.206C21.2378 22.0766 21.1083 21.8885 21.0501 21.6416L20.2146 19.1H15.25ZM15.8 17.3H19.5L17.6736 12.25H17.625L15.8 17.3ZM8.87833 14.075L4.39483 18.546C4.17924 18.7487 3.93267 18.8458 3.6551 18.8375C3.37753 18.8291 3.14478 18.7375 2.95685 18.5625C2.76892 18.3708 2.68328 18.1276 2.69995 17.8328C2.71662 17.5379 2.81373 17.3019 2.9913 17.1247L7.57495 12.55C6.91495 11.7863 6.32495 11.0163 5.80495 10.2398C5.28495 9.46323 4.84162 8.66664 4.47495 7.84998H6.72495C6.99162 8.41664 7.31103 8.9547 7.68318 9.46415C8.05531 9.97359 8.45759 10.5022 8.89003 11.05C9.67998 10.2333 10.3385 9.38447 10.8657 8.50345C11.3928 7.62245 11.8459 6.70463 12.225 5.74998H1.59638C1.30049 5.74998 1.05628 5.64757 0.863751 5.44275C0.671218 5.23792 0.574951 4.99048 0.574951 4.70043C0.574951 4.41036 0.677868 4.16604 0.883701 3.96748C1.08953 3.76891 1.33866 3.66963 1.63108 3.66963H7.84935V2.6223C7.84935 2.33015 7.94725 2.08673 8.14305 1.89203C8.33883 1.69733 8.58362 1.59998 8.8774 1.59998C9.17118 1.59998 9.41816 1.69758 9.61833 1.8928C9.81851 2.088 9.9186 2.33206 9.9186 2.62498V3.67498H16.1573C16.4521 3.67498 16.6995 3.77329 16.8997 3.96993C17.0999 4.16656 17.2 4.41239 17.2 4.70743C17.2 5.00246 17.0976 5.24998 16.8929 5.44998C16.6882 5.64998 16.4385 5.74998 16.1439 5.74998H14.2696C13.8898 6.98331 13.3833 8.17081 12.75 9.31248C12.1166 10.4541 11.3333 11.5416 10.4 12.575L12.95 15.15L12.2152 17.2483L8.87833 14.075Z" fill="url(#paint0_linear_11_93)"/>
<defs>
<linearGradient id="paint0_linear_11_93" x1="11.838" y1="1.59998" x2="11.838" y2="22.4" gradientUnits="userSpaceOnUse">
<stop stop-color="#FFAF00"/>
<stop offset="0.53125" stop-color="#FE4D1B"/>
<stop offset="1" stop-color="#E70154"/>
</linearGradient>
</defs>
</svg>
