<svg width="197" height="50" viewBox="0 0 197 50" fill="none" xmlns="http://www.w3.org/2000/svg">
<path d="M0.652466 6.144C6.1138 5.67466 11.1485 5.44 15.7565 5.44C22.2418 5.44 27.0205 7.18933 30.0925 10.688C33.1645 14.1867 34.7005 19.328 34.7005 26.112C34.7005 33.3227 33.0365 38.8907 29.7085 42.816C26.4231 46.6987 21.3885 48.64 14.6045 48.64C10.2098 48.64 5.55913 48.3413 0.652466 47.744V6.144ZM15.0525 44.032C18.4231 44.032 20.6631 42.4747 21.7725 39.36C22.8818 36.2453 23.4365 32.0213 23.4365 26.688C23.4365 21.824 22.8818 17.856 21.7725 14.784C20.7058 11.6693 18.6365 10.112 15.5645 10.112C14.2418 10.112 12.8125 10.24 11.2765 10.496V43.584C12.4711 43.8827 13.7298 44.032 15.0525 44.032Z" fill="#141414"/>
<path d="M79.94 2.176V41.6C79.94 42.7947 80.0893 43.84 80.388 44.736C80.6866 45.632 81.1986 46.4213 81.924 47.104C81.4546 47.7013 80.7293 48.1493 79.748 48.448C78.8093 48.7893 77.8706 48.96 76.932 48.96C74.7133 48.96 73.028 48.4053 71.876 47.296C70.724 46.144 70.148 44.4587 70.148 42.24V3.2L79.94 2.176Z" fill="#141414"/>
<path d="M95.3265 0.895996C97.0758 0.895996 98.4625 1.30133 99.4865 2.112C100.553 2.92267 101.086 4.05333 101.086 5.504C101.086 6.99733 100.532 8.14933 99.4225 8.96C98.3131 9.728 96.8838 10.112 95.1345 10.112C93.4278 10.112 92.0198 9.728 90.9105 8.96C89.8438 8.14933 89.3105 7.04 89.3105 5.632C89.3105 4.13866 89.8651 2.98667 90.9745 2.176C92.1265 1.32266 93.5771 0.895996 95.3265 0.895996ZM99.9345 41.6C99.9345 42.7947 100.084 43.84 100.382 44.736C100.681 45.632 101.193 46.4213 101.918 47.104C101.449 47.7013 100.724 48.1493 99.7425 48.448C98.8038 48.7893 97.8651 48.96 96.9265 48.96C94.7078 48.96 93.0225 48.4053 91.8705 47.296C90.7185 46.144 90.1425 44.4587 90.1425 42.24V15.36H99.9345V41.6Z" fill="#141414"/>
<path d="M110.016 15.36L118.016 14.592L118.464 20.352C120.086 16.1707 123.435 14.08 128.512 14.08C130.987 14.08 132.971 14.5493 134.464 15.488C135.958 16.384 137.067 17.7493 137.792 19.584C139.499 15.9147 142.614 14.08 147.136 14.08C150.806 14.08 153.408 15.0827 154.944 17.088C156.48 19.0933 157.248 22.1013 157.248 26.112V41.6C157.248 42.7947 157.398 43.84 157.696 44.736C157.995 45.632 158.507 46.4213 159.232 47.104C158.763 47.7013 158.038 48.1493 157.056 48.448C156.118 48.7893 155.179 48.96 154.24 48.96C152.022 48.96 150.336 48.4053 149.184 47.296C148.032 46.144 147.456 44.4587 147.456 42.24V26.624C147.456 24.1493 147.222 22.2507 146.752 20.928C146.283 19.6053 145.216 18.944 143.552 18.944C141.59 18.944 140.288 19.9253 139.648 21.888C139.051 23.8507 138.752 26.368 138.752 29.44V48H128.96V26.624C128.96 24.1067 128.726 22.208 128.256 20.928C127.787 19.6053 126.678 18.944 124.928 18.944C122.838 18.944 121.451 19.904 120.768 21.824C120.128 23.744 119.808 26.2827 119.808 29.44V48H110.016V15.36Z" fill="#141414"/>
<path d="M185.321 45.12C184.553 46.6133 183.401 47.7013 181.865 48.384C180.329 49.0667 178.601 49.408 176.681 49.408C173.396 49.408 170.622 48.5547 168.361 46.848C166.1 45.1413 164.969 42.7733 164.969 39.744C164.969 35.7333 166.825 33.0027 170.537 31.552C174.249 30.1013 178.921 29.376 184.553 29.376V23.808C184.553 21.8027 184.276 20.2667 183.721 19.2C183.166 18.1333 182.078 17.6 180.457 17.6C178.921 17.6 177.726 18.0693 176.873 19.008C176.02 19.904 175.593 21.1413 175.593 22.72C175.593 23.4027 175.721 24.4267 175.977 25.792C175.678 26.0053 175.23 26.176 174.633 26.304C174.036 26.3893 173.481 26.432 172.969 26.432C171.22 26.432 169.769 26.0267 168.617 25.216C167.465 24.3627 166.889 23.1467 166.889 21.568C166.889 19.136 168.254 17.28 170.985 16C173.758 14.72 177.065 14.08 180.905 14.08C185.513 14.08 188.905 14.9973 191.081 16.832C193.257 18.6667 194.345 21.76 194.345 26.112V41.6C194.345 42.7947 194.494 43.84 194.793 44.736C195.092 45.632 195.604 46.4213 196.329 47.104C195.86 47.7013 195.156 48.1493 194.217 48.448C193.321 48.7893 192.404 48.96 191.465 48.96C189.886 48.96 188.564 48.64 187.497 48C186.43 47.3173 185.705 46.3573 185.321 45.12ZM179.689 44.992C181.353 44.992 182.569 44.3093 183.337 42.944C184.148 41.5787 184.553 39.9147 184.553 37.952V32.576C178.238 32.576 175.081 34.88 175.081 39.488C175.081 41.1093 175.465 42.432 176.233 43.456C177.044 44.48 178.196 44.992 179.689 44.992Z" fill="#141414"/>
<path d="M50 44.7C50 47.2957 47.3137 49.4 44 49.4C40.6863 49.4 38 47.2957 38 44.7C38 42.1043 40.6863 40 44 40C47.3137 40 50 42.1043 50 44.7Z" fill="url(#paint0_linear_5_84)"/>
<path d="M102 5.29999C102 8.06141 99.0898 10.3 95.5 10.3C91.9101 10.3 89 8.06141 89 5.29999C89 2.53856 91.9101 0.299988 95.5 0.299988C99.0898 0.299988 102 2.53856 102 5.29999Z" fill="url(#paint1_linear_5_84)"/>
<defs>
<linearGradient id="paint0_linear_5_84" x1="98.4907" y1="0.299988" x2="98.4907" y2="49.408" gradientUnits="userSpaceOnUse">
<stop stop-color="#FFAF00"/>
<stop offset="0.53125" stop-color="#FE4D1B"/>
<stop offset="1" stop-color="#E70154"/>
</linearGradient>
<linearGradient id="paint1_linear_5_84" x1="98.4907" y1="0.299988" x2="98.4907" y2="49.408" gradientUnits="userSpaceOnUse">
<stop stop-color="#FFAF00"/>
<stop offset="0.53125" stop-color="#FE4D1B"/>
<stop offset="1" stop-color="#E70154"/>
</linearGradient>
</defs>
</svg>
